<?xml version="1.0" standalone="no"?>
<!DOCTYPE svg PUBLIC "-//W3C//DTD SVG 20010904//EN"
 "http://www.w3.org/TR/2001/REC-SVG-20010904/DTD/svg10.dtd">
<svg version="1.0" xmlns="http://www.w3.org/2000/svg"
 width="500.000000pt" height="500.000000pt" viewBox="0 0 500.000000 500.000000"
 preserveAspectRatio="xMidYMid meet">
<metadata>
Created by potrace 1.11, written by Peter Selinger 2001-2013
</metadata>
<g transform="translate(0.000000,500.000000) scale(0.100000,-0.100000)"
fill="#000000" stroke="none">
<path d="M3500 4853 c-289 -49 -536 -202 -757 -467 -67 -81 -95 -123 -177
-268 l-26 -47 -60 24 c-203 80 -337 81 -480 4 -100 -53 -173 -139 -219 -256
-26 -65 -29 -89 -30 -194 l-1 -86 -37 -7 c-169 -27 -494 -192 -722 -365 -348
-265 -509 -566 -441 -822 21 -76 80 -185 177 -327 243 -353 298 -446 337 -564
29 -92 39 -153 39 -248 0 -128 -10 -197 -50 -360 -14 -58 -25 -127 -25 -153 4
-194 262 -380 667 -482 72 -19 148 -36 170 -39 23 -4 50 -8 60 -10 308 -57
816 -68 1190 -25 437 51 776 206 875 400 32 61 33 150 3 279 -31 140 -32 141
-48 270 -14 112 -4 300 22 405 42 173 107 290 285 515 33 41 69 86 80 100 46
59 130 211 132 242 2 18 -3 60 -11 92 -14 59 -81 206 -109 237 -8 8 -14 19
-14 23 0 15 -104 141 -174 212 -153 153 -302 258 -540 380 -148 76 -255 116
-397 148 -24 5 -26 9 -20 38 17 79 -10 229 -54 304 -31 52 -85 100 -144 127
-37 16 -67 21 -152 21 l-106 1 13 58 c18 77 82 227 97 227 4 0 7 5 7 11 0 33
190 256 280 329 14 11 30 23 35 28 117 95 297 169 429 176 140 9 301 -75 356
-184 93 -187 -6 -490 -191 -585 -76 -40 -187 -22 -217 35 -32 61 17 181 80
198 22 6 38 5 47 -2 12 -10 12 -18 -1 -111 -5 -33 41 -31 90 4 91 67 127 173
80 240 -55 81 -132 101 -222 57 -122 -60 -194 -208 -164 -340 45 -204 339
-207 536 -5 135 139 182 370 108 534 -48 106 -164 197 -281 221 -66 14 -88 16
-165 18 -47 1 -119 -4 -160 -11z m-1109 -815 c118 -54 177 -149 184 -296 l2
-46 47 -11 c116 -25 167 -136 112 -242 -53 -103 -174 -113 -264 -22 l-40 39
-48 -28 c-44 -24 -59 -27 -144 -27 -82 0 -103 4 -151 26 -79 37 -133 90 -171
166 -28 56 -31 74 -31 146 0 61 5 94 21 128 39 89 121 158 221 186 73 20 195
12 262 -19z m-521 -687 c57 -57 122 -99 212 -137 149 -63 233 -79 433 -79 179
0 223 6 359 51 129 43 211 102 276 199 18 28 34 51 35 52 8 13 252 -100 390
-179 67 -39 217 -145 280 -198 228 -193 347 -440 256 -531 l-29 -29 -124 2
c-100 1 -168 -4 -218 -17 -75 -20 -85 -24 -265 -129 -44 -25 -96 -51 -115 -57
-50 -15 -206 -20 -265 -8 -27 6 -60 12 -73 15 -12 2 -89 26 -170 53 -300 100
-395 99 -742 -4 -273 -81 -373 -66 -648 93 -210 122 -252 136 -402 132 -235
-7 -290 -4 -310 16 -52 53 -18 181 92 342 78 114 285 286 487 405 125 74 301
161 389 191 l37 13 38 -78 c21 -43 55 -96 77 -118z m-684 -999 c15 -8 49 -78
111 -229 50 -120 99 -243 111 -273 11 -30 27 -73 35 -95 14 -38 55 -178 62
-213 2 -9 10 -48 19 -87 20 -89 43 -224 51 -295 4 -30 9 -71 12 -90 10 -78 9
-309 -3 -377 -15 -88 -46 -156 -78 -171 -102 -46 -348 76 -383 192 -11 35 -10
94 3 176 3 25 8 56 9 70 2 14 6 43 10 65 9 49 10 269 1 346 -27 249 -115 446
-319 713 -82 106 -115 162 -133 222 l-14 47 43 -8 c75 -13 209 -7 307 14 50
10 131 7 156 -7z m2880 -97 c40 -3 89 -11 110 -19 51 -18 49 -37 -20 -146
-111 -175 -169 -300 -211 -454 -25 -92 -26 -100 -44 -216 -23 -150 -31 -384
-18 -520 16 -159 13 -241 -11 -286 -50 -97 -159 -167 -261 -167 -118 0 -177
69 -208 240 -15 84 -6 451 12 523 3 8 7 38 10 66 3 28 7 59 9 70 2 10 7 39 11
64 27 165 97 456 138 575 57 165 51 157 192 229 74 38 140 55 190 50 17 -2 62
-5 101 -9z m-1128 -130 c200 -66 222 -73 287 -80 28 -3 64 -8 80 -10 17 -2 35
-4 42 -4 32 -2 42 -151 28 -416 -10 -204 -21 -362 -30 -425 -2 -14 -6 -61 -10
-105 -3 -44 -8 -91 -10 -105 -2 -14 -6 -47 -10 -75 -11 -96 -13 -110 -20 -145
-3 -19 -8 -46 -10 -60 -13 -78 -18 -103 -40 -187 -14 -51 -33 -110 -44 -132
-44 -86 -140 -129 -277 -126 -195 6 -277 64 -323 233 -30 109 -32 435 -6 936
7 131 21 280 39 401 23 157 94 355 127 355 6 0 85 -25 177 -55z m-665 3 c8
-24 29 -81 46 -128 47 -132 95 -349 116 -520 3 -25 8 -63 11 -85 3 -22 6 -53
9 -70 21 -175 33 -512 21 -645 -25 -300 -99 -412 -268 -411 -80 0 -215 35
-299 78 -127 65 -182 152 -214 343 -2 14 -8 52 -14 85 -6 33 -13 78 -16 100
-5 37 -7 62 -20 175 -7 63 -13 141 -20 240 -3 47 -8 112 -11 145 -7 96 -14
679 -8 702 l6 20 61 -19 c99 -32 253 -28 437 12 136 29 145 28 163 -22z"/>
<path d="M1515 3376 c-44 -18 -104 -47 -133 -64 -29 -18 -55 -32 -58 -32 -3 0
-22 -12 -42 -27 -83 -61 -148 -109 -171 -128 -122 -100 -302 -332 -301 -387 0
-7 11 0 23 17 64 87 175 176 353 283 57 34 115 61 284 134 190 81 280 139 280
179 0 10 -10 27 -22 39 -35 32 -115 27 -213 -14z"/>
<path d="M3243 3305 c-63 -53 14 -127 267 -255 255 -128 330 -179 499 -337 31
-29 59 -53 64 -53 12 0 -37 89 -91 165 -73 103 -265 286 -392 372 -176 120
-292 156 -347 108z"/>
<path d="M952 2113 c-13 -21 6 -85 45 -155 30 -55 109 -234 118 -268 0 -3 11
-34 22 -70 53 -157 67 -252 66 -420 -1 -130 -17 -312 -28 -330 -3 -6 -2 -10 3
-10 11 0 48 82 69 154 65 218 78 534 32 758 -16 77 -81 207 -134 266 -70 78
-170 117 -193 75z"/>
<path d="M3900 2074 c-67 -57 -117 -191 -165 -449 -7 -37 -7 -278 -1 -326 3
-19 8 -56 10 -84 11 -106 33 -217 59 -290 12 -35 14 -15 13 210 -1 227 1 260
23 355 12 58 26 110 29 115 4 6 8 17 9 26 4 26 83 216 114 277 39 73 51 159
24 178 -30 22 -80 17 -115 -12z"/>
</g>
</svg>
